<svg xmlns="http://www.w3.org/2000/svg" width="31.747" height="31.744" viewBox="0 0 31.747 31.744">
  <path id="Path_1048" data-name="Path 1048" d="M279.135,122.522l-2.094-2.094a4.466,4.466,0,0,0-6.314,0L251.8,139.354a1.045,1.045,0,0,0-.26.428l-2.8,9.814a1,1,0,0,0,.245.978,1.036,1.036,0,0,0,.7.29.866.866,0,0,0,.275-.046l9.814-2.8a.879.879,0,0,0,.428-.26l18.926-18.926a4.368,4.368,0,0,0,1.315-3.149A4.428,4.428,0,0,0,279.135,122.522Zm-27.991,25.912,2.018-7.093,5.106,5.045Zm8.469-2.874-5.641-5.58,14.66-14.645,5.6,5.61Zm18.131-18.115-2.11,2.094-5.611-5.61,2.11-2.094a2.468,2.468,0,0,1,3.5,0l2.11,2.094a2.462,2.462,0,0,1,.718,1.758A2.527,2.527,0,0,1,277.744,127.445Z" transform="translate(-248.703 -119.121)" fill="#8092ef"/>
</svg>
