<svg xmlns="http://www.w3.org/2000/svg" width="20.307" height="24.15" viewBox="0 0 20.307 24.15">
  <path id="Path_1048" data-name="Path 1048" d="M193.495,41.389h.016a.721.721,0,0,0,.72-.724l-.294-10.726a.724.724,0,0,0-.735-.693h-.016a.721.721,0,0,0-.72.724L192.76,40.7A.724.724,0,0,0,193.495,41.389Zm4.3,0a.723.723,0,0,0,.734-.693l.294-10.726a.721.721,0,0,0-.719-.724h-.017a.723.723,0,0,0-.734.693l-.294,10.726a.721.721,0,0,0,.72.724Zm5.786-12.142a.729.729,0,0,0-.762.683l-.588,15.934a.888.888,0,0,1-.9.871H189.961a.894.894,0,0,1-.9-.9l-.588-15.908a.729.729,0,0,0-.762-.684.719.719,0,0,0-.708.733l.587,15.884a2.335,2.335,0,0,0,2.374,2.288H201.33a2.329,2.329,0,0,0,2.373-2.262l.588-15.909A.719.719,0,0,0,203.583,29.247Zm1.483-2.509h-4.48V24.712a.728.728,0,0,0-.74-.711h-8.405a.726.726,0,0,0-.73.711v2.026h-4.48a.712.712,0,1,0,0,1.422h18.836a.711.711,0,1,0,0-1.422Zm-5.951,0h-6.934V25.423h6.934Z" transform="translate(-185.49 -24.001)" fill="#de2b2b"/>
</svg>
