<svg xmlns="http://www.w3.org/2000/svg" width="94.942" height="176.421" viewBox="0 0 94.942 176.421">
  <g id="Group_1" data-name="Group 1" transform="translate(-275.5 -250.5)">
    <path id="Subtraction_1" data-name="Subtraction 1" d="M54,118.972a9.184,9.184,0,0,1-5.258-1.637,8.865,8.865,0,0,1-3.4-4.911L35.53,77.8,47.022,66.308a4.5,4.5,0,1,0-6.364-6.364l-7.937,7.937L27.143,48.188,47.022,28.309a4.5,4.5,0,1,0-6.364-6.364L24.334,38.269l-7.6-26.816A9,9,0,0,1,25.4,0H82.593a9,9,0,0,1,8.659,11.453L79.226,53.917l-9.972-9.972a4.5,4.5,0,1,0-6.364,6.364L76.416,63.835,69.956,86.647l-5.7-5.7a4.5,4.5,0,0,0-6.364,6.364l9.258,9.258-4.491,15.859a8.866,8.866,0,0,1-3.4,4.911A9.184,9.184,0,0,1,54,118.972Z" transform="translate(271.504 307.949)" fill="#4e8aff"/>
    <line id="Line_2" data-name="Line 2" y2="25" transform="translate(325.5 265.5)" fill="none" stroke="#4e8aff" stroke-linecap="round" stroke-width="10"/>
    <line id="Line_3" data-name="Line 3" y1="40" x2="27" transform="translate(336.5 257.5)" fill="none" stroke="#4e8aff" stroke-linecap="round" stroke-width="10"/>
    <line id="Line_4" data-name="Line 4" x1="30" y1="40" transform="translate(282.5 257.5)" fill="none" stroke="#4e8aff" stroke-linecap="round" stroke-width="10"/>
  </g>
</svg>
